# xmcd
#
# Track frame offsets:
#	150
#	13114
#	25092
#	38542
#	50602
#	64230
#	76169
#	86165
#	98159
#	111210
#	123889
#	137258
#	149223
#	160473
#	173922
#	180604
#	193567
#	207090
#	219794
#	230881
#	244151
#	255070
#	267948
#	277925
#	289877
#
# Disc length: 4029 seconds
#
# Revision: 1
# Processed by: cddbd v1.5.1PL0 Copyright (c) Steve Scherf et al.
# Submitted via: audiograbber 1.81.03
#
DISCID=600fbb19
DTITLE=Tex Williams - 25 Greatest Hits
DYEAR=2003
DGENRE=Country
TTITLE0=Shame On You - 1945 (#1)
TTITLE1=I've Taken All I'm Gonna Take From You - 1945 (#4)
TTITLE2=You Can't Break My Heart - 1946 (#3)
TTITLE3=Detour - 1946 (#2)
TTITLE4=California Polka - 1946 (#4)
TTITLE5=The Leaf Of Love
TTITLE6=You Broke Your Promise
TTITLE7=Crazy 'Cause I Love You - 1947 (#4)
TTITLE8=Smoke! Smoke! Smoke! - 1947 (#1)
TTITLE9=That's What I Like About The West - 1947 (#4)
TTITLE10=Never Trust A Woman - 1947 (#2)
TTITLE11=Miss Molly
TTITLE12=Don't Telephone, Don't Telegraph, Tell A Woman - 1948 (#2)
TTITLE13=Suspicion - 1948 (#4)
TTITLE14=Banjo Polka - 1948 (#5)
TTITLE15=Who? Me? - 1948 (#6)
TTITLE16=Foolish Tears - 1948 (#15)
TTITLE17=Talking Boogie - 1948 (#6)
TTITLE18=Just A Pair Of Blue Eyes - 1948 (#13)
TTITLE19=Life Gets Tee-Jus, Don't It? - 1948 (#5)
TTITLE20=Bluebird On Your Windowsill - 1948 (#11)
TTITLE21=Ham And Eggs
TTITLE22=Great Big Needle
TTITLE23=Wild Card
TTITLE24=Birmingham Bounce
EXTD=CTS 55493 (2003) ICM Music Ltd.\nCharting titles include year and highest 
EXTD=position reached on country charts
EXTT0=
EXTT1=
EXTT2=
EXTT3=
EXTT4=
EXTT5=
EXTT6=
EXTT7=
EXTT8=
EXTT9=
EXTT10=
EXTT11=
EXTT12=
EXTT13=
EXTT14=
EXTT15=
EXTT16=
EXTT17=
EXTT18=
EXTT19=
EXTT20=
EXTT21=
EXTT22=
EXTT23=
EXTT24=
PLAYORDER=
